<svg xmlns="http://www.w3.org/2000/svg" xmlns:xlink="http://www.w3.org/1999/xlink" xml:space="preserve" version="1.1" style="shape-rendering:geometricPrecision;text-rendering:geometricPrecision;image-rendering:optimizeQuality;" viewBox="0 0 60000 75000" x="0px" y="0px" fill-rule="evenodd" clip-rule="evenodd"><defs><style type="text/css">
   
    .fil0 {fill:black;fill-rule:nonzero}
   
  </style></defs><g><path class="fil0" d="M23922.91 59198.03c0,220.05 -178.39,398.44 -398.44,398.44 -220.05,0 -398.44,-178.39 -398.44,-398.44l33.43 -11883.97c3.73,-1326.94 -84.5,-2550.77 -407.8,-3614.38 -313.51,-1031.4 -853.23,-1919.85 -1756.9,-2616.96 -926.15,-714.46 -1574.95,-1275.43 -1912.96,-1956.03 -354.31,-713.45 -350.52,-1496.5 61.16,-2609.91 124.13,-335.73 232.4,-632.46 329.14,-901.33 64.36,-178.87 187.65,-524.95 358.24,-1005.18l-3107.48 -1152.51c-350.22,854.68 -790.27,1385.97 -1894.87,976.29 -670.89,-248.82 -1178.08,-747.45 -1455.7,-1352.42 -277.3,-604.23 -324.39,-1313.43 -75.59,-1984.28 248.83,-670.89 747.44,-1178.06 1352.41,-1455.7 604.25,-277.29 1313.43,-324.38 1984.28,-75.58 1096,406.48 1111.85,1035.08 836.15,1876.27l3077.35 1141.33c432.01,-1225.48 506.92,-1438.3 577.48,-1638.83 376.76,-1070.67 778.92,-2213.48 1034.04,-2936.95l-2880.06 -1068.17c-350.22,854.68 -790.27,1385.97 -1894.87,976.29 -670.89,-248.82 -1178.08,-747.45 -1455.7,-1352.42 -277.3,-604.23 -324.39,-1313.43 -75.59,-1984.28 248.83,-670.89 747.44,-1178.06 1352.41,-1455.7 604.25,-277.29 1313.43,-324.38 1984.28,-75.58 1096,406.48 1111.85,1035.08 836.15,1876.27l2850.02 1057.02c298.07,-841.02 568.17,-1601.32 791.21,-2226.26 190.37,-533.39 462.17,-1290.52 841.08,-2341.81l-2673.5 -991.56c-350.22,854.68 -790.27,1385.97 -1894.87,976.29 -670.89,-248.82 -1178.08,-747.45 -1455.7,-1352.42 -277.3,-604.23 -324.39,-1313.43 -75.59,-1984.28 248.83,-670.89 747.44,-1178.06 1352.41,-1455.7 604.25,-277.29 1313.43,-324.38 1984.28,-75.58 1096,406.48 1111.85,1035.08 836.15,1876.27l2657.93 985.77c300.87,-827.05 584.01,-1600.65 843.02,-2302.3 271.03,-734.17 550.24,-1483.95 837.53,-2247.89l-2529.67 -938.21c-350.22,854.68 -790.27,1385.97 -1894.87,976.29 -670.89,-248.82 -1178.08,-747.45 -1455.7,-1352.42 -277.3,-604.23 -324.39,-1313.43 -75.59,-1984.28 248.83,-670.89 747.44,-1178.06 1352.41,-1455.7 604.25,-277.29 1313.43,-324.38 1984.28,-75.58 1096,406.48 1111.85,1035.08 836.15,1876.27l2545.79 944.18c313.5,-815.6 635.6,-1639 965.83,-2466.31 289.58,-725.46 568.42,-1408.79 833.4,-2039.85l-2536.21 -940.64c-350.22,854.68 -790.27,1385.97 -1894.87,976.29 -670.89,-248.82 -1178.08,-747.45 -1455.7,-1352.42 -277.3,-604.23 -324.39,-1313.43 -75.59,-1984.28 248.83,-670.89 747.44,-1178.06 1352.41,-1455.7 604.25,-277.29 1313.43,-324.38 1984.28,-75.58 1096,406.48 1111.85,1035.08 836.15,1876.27l2651.77 983.49c255.11,-554.75 489.02,-1032.91 697.64,-1421.24 236.37,-440 448.44,-780.33 631.66,-1004.84 2862.28,-3507.2 6233.46,-4148.75 9076.76,-3276.08 1426.76,437.91 2715.63,1258.66 3735.92,2290.11 1022.64,1033.82 1780.38,2285 2141.89,3580.47 614.4,2201.58 94.04,4515.96 -2184.85,6122.31 -474.37,334.37 -998.33,617.05 -1526.85,902.17 -1753,945.69 -3561.21,1921.2 -3088.41,4950.74 235.7,1510.23 1697.1,3384.93 3174.66,5280.37 1101.74,1413.34 2212.23,2837.88 2877.47,4190.26 727.49,1478.92 383.2,3160.95 -463.29,4843.66 -812.45,1615.03 -2088.6,3231.86 -3298.86,4655.21 -542.73,638.29 -1052.67,1198.41 -1529.63,1722.31 -2174.06,2388 -3642.98,4001.46 -3631.38,8124.94l33.51 11910.51c0,220.05 -178.39,398.44 -398.44,398.44 -220.05,0 -398.44,-178.39 -398.44,-398.44l-1.72 -609.85 -1209.21 0 -0.74 814.82c0,137.52 -111.5,249.02 -249.02,249.02 -137.52,0 -249.02,-111.5 -249.02,-249.02l0.74 -814.82 -2104.57 0 -0.75 828.05c0,137.52 -111.5,249.02 -249.02,249.02 -137.52,0 -249.02,-111.5 -249.02,-249.02l0.75 -828.05 -1724.56 0 -0.76 834.61c0,137.52 -111.5,249.02 -249.02,249.02 -137.52,0 -249.02,-111.5 -249.02,-249.02l0.76 -834.61 -1724.57 0 -0.76 834.62c0,137.52 -111.5,249.02 -249.02,249.02 -137.52,0 -249.02,-111.5 -249.02,-249.02l0.76 -834.62 -1724.58 0 -0.74 821.39c0,137.52 -111.5,249.02 -249.02,249.02 -137.52,0 -249.02,-111.5 -249.02,-249.02l0.74 -821.39 -1288.67 0 -1.64 583.31zm10561.47 -1383.31l9.16 -10100.66 -2104.56 0 -9.16 10100.66 2104.56 0zm9.89 -10900.66l1.4 -1541.68 -2104.57 0 -1.4 1541.68 2104.57 0zm2.12 -2341.68l29.96 -33042.49c-348.59,20.99 -706.87,-28.42 -1054.84,-157.47 -670.89,-248.82 -1178.08,-747.45 -1455.7,-1352.41 -120.78,-263.18 -197.88,-546.27 -225.88,-837.44l-1561.07 -578.98c-268.43,638.57 -549.64,1327.35 -840.61,2056.26 -289.54,725.35 -610.94,1549.17 -957.12,2450.47l1505.56 558.38c229.47,-240.8 502,-433.67 800.45,-570.63 604.24,-277.3 1313.43,-324.39 1984.28,-75.59 670.9,248.83 1178.08,747.45 1455.7,1352.41 277.3,604.23 324.39,1313.42 75.59,1984.28 -248.82,670.89 -747.45,1178.08 -1352.41,1455.7 -155.33,71.28 -317.59,127.31 -484.36,167.05l-24.12 26590.46 2104.57 0zm528.07 -33121.72l-30.03 33121.72 1409.21 0c521.62,-2546.68 1840.49,-3995.67 3593.12,-5920.76 475.82,-522.64 984.55,-1081.43 1510.87,-1700.43 1179.25,-1386.88 2419.92,-2956.74 3195.74,-4498.97 741.77,-1474.54 1057.25,-2920.47 460.17,-4134.28 -627.41,-1275.47 -1712.96,-2668.03 -2789.97,-4049.64 -1541.57,-1977.55 -3066.29,-3933.47 -3334.04,-5649.11 -559.77,-3586.78 1500.47,-4698.25 3497.79,-5775.74 506.42,-273.2 1008.47,-544.06 1445.59,-852.17 1956.41,-1379.04 2403.04,-3366.23 1875.47,-5256.69 -323.75,-1160.16 -1010.82,-2289.23 -1941.89,-3230.47 -933.41,-943.62 -2107.26,-1692.87 -3401.54,-2090.11 -2558.46,-785.25 -5607.45,-188.94 -8223.62,3016.7 -148.9,182.45 -333.08,481.06 -547.3,879.84 -198.72,369.91 -416.83,813.85 -651.18,1321.13l1399.33 518.98c229.47,-240.8 502,-433.67 800.45,-570.63 604.24,-277.3 1313.43,-324.39 1984.28,-75.59 670.9,248.83 1178.08,747.45 1455.7,1352.41 277.3,604.23 324.39,1313.42 75.59,1984.28 -248.82,670.89 -747.45,1178.08 -1352.41,1455.7 -138.81,63.71 -283.17,115.23 -431.33,153.83zm-30.75 33921.72l-1.4 1541.68 1170.09 0c10.76,-555.75 47.75,-1066.91 108.92,-1541.68l-1277.61 0zm-2.13 2341.68l-9.16 10100.66 1206.24 0 -28.41 -10100.66 -1168.67 0zm-3109.8 10100.66l9.16 -10100.66 -1724.57 0 -9.16 10100.66 1724.57 0zm9.88 -10900.66l1.4 -1541.68 -1724.57 0 -1.4 1541.68 1724.57 0zm2.12 -2341.68l24.05 -26521.82c-331.83,13.14 -671.46,-37.58 -1001.81,-160.1 -670.89,-248.82 -1178.08,-747.45 -1455.7,-1352.41 -120.78,-263.18 -197.88,-546.27 -225.88,-837.44l-1567.14 -581.23c-265.07,705.15 -544.98,1457.49 -835.83,2245.36 -301.56,816.89 -582.5,1583.5 -845.01,2304.73l1394.74 517.28c229.47,-240.8 502,-433.67 800.45,-570.63 604.24,-277.3 1313.43,-324.39 1984.28,-75.59 670.9,248.83 1178.08,747.45 1455.7,1352.41 277.3,604.23 324.39,1313.42 75.59,1984.28 -248.82,670.89 -747.45,1178.08 -1352.41,1455.7 -51.69,23.72 -104.17,45.72 -157.31,66.03l-18.28 20173.43 1724.56 0zm-2234.61 13242.34l9.16 -10100.66 -1724.57 0 -9.16 10100.66 1724.57 0zm9.88 -10900.66l1.4 -1541.68 -1724.56 0 -1.4 1541.68 1724.56 0zm2.13 -2341.68l18.16 -20037.61c-432.48,72.81 -888.89,36.89 -1328.81,-126.26 -670.89,-248.82 -1178.08,-747.45 -1455.7,-1352.41 -120.78,-263.18 -197.88,-546.27 -225.88,-837.44l-1424.53 -528.33c-197.69,549.59 -484.38,1350.97 -835.04,2333.49 -313.07,877.16 -573.59,1609.51 -795.48,2235.23l1201.81 445.73c229.47,-240.8 502,-433.67 800.45,-570.63 604.24,-277.3 1313.43,-324.39 1984.28,-75.59 670.9,248.83 1178.08,747.45 1455.7,1352.41 277.3,604.23 324.39,1313.42 75.59,1984.28 -225.12,607 -654.75,1079.98 -1182.59,1370.18l-12.53 13806.95 1724.57 0zm-2234.62 13242.34l9.16 -10100.66 -1724.57 0 -9.16 10100.66 1724.57 0zm9.89 -10900.66l1.4 -1541.68 -1724.58 0 -1.4 1541.68 1724.58 0zm2.12 -2341.68l12.33 -13596.68c-524.56,159.92 -1103.21,155.8 -1655.86,-49.16 -670.89,-248.82 -1178.08,-747.45 -1455.7,-1352.41 -120.78,-263.18 -197.88,-546.27 -225.88,-837.44l-1216.26 -451.09c-494.99,1402.22 -772.06,2189.55 -1029.71,2921.74 -303.49,862.46 -477.61,1357.89 -581.82,1654.04l974.55 361.44c229.47,-240.8 502,-433.67 800.45,-570.63 604.24,-277.3 1313.43,-324.39 1984.28,-75.59 670.9,248.83 1178.08,747.45 1455.7,1352.41 277.3,604.23 324.39,1313.42 75.59,1984.28 -176.5,475.91 -478.74,869.4 -855.44,1157.05l-6.8 7502.04 1724.57 0zm-603.6 -39205.69c198.24,-534.53 271.7,-922.72 -267.74,-1122.78 -466.27,-172.93 -957.56,-140.94 -1374.9,50.58 -416.59,191.18 -760.75,542.58 -933.67,1008.82 -172.92,466.26 -140.94,957.57 50.59,1374.9 191.18,416.6 542.57,760.76 1008.82,933.68 539.46,200.07 756.27,-194.33 966.99,-762.49 63.86,-172.2 94.09,-258.41 125.23,-347.23 56.71,-161.75 115.09,-328.22 143.24,-404.13 38.33,-103.35 97.22,-253.65 153.97,-398.49 38.25,-97.64 75.22,-191.97 127.47,-332.86zm565.92 752.57c-28.09,72.5 -59.24,154.12 -97.36,256.9 -41.32,111.44 -70.39,191.63 -94.11,258.14l4626.17 1715.76c24.59,-105.35 56.05,-210.29 94.63,-314.33 25.99,-70.06 54.73,-138.31 86,-204.73l-4615.33 -1711.74zm8596.72 2068.85c-191.18,-416.59 -542.57,-760.75 -1008.82,-933.67 -466.26,-172.92 -957.56,-140.94 -1374.9,50.59 -416.59,191.18 -760.75,542.57 -933.67,1008.82 -172.92,466.26 -140.94,957.56 50.59,1374.9 191.18,416.59 542.57,760.75 1008.82,933.67 466.26,172.92 957.56,140.94 1374.9,-50.59 416.59,-191.18 760.75,-542.57 933.67,-1008.82 172.92,-466.26 140.94,-957.56 -50.59,-1374.9zm-11718.13 3696.62c198.24,-534.53 271.7,-922.72 -267.74,-1122.78 -466.27,-172.93 -957.56,-140.94 -1374.9,50.58 -416.59,191.18 -760.75,542.58 -933.67,1008.82 -172.92,466.26 -140.94,957.57 50.59,1374.9 191.18,416.6 542.57,760.76 1008.82,933.68 539.46,200.07 756.27,-194.33 966.99,-762.49 63.86,-172.2 94.09,-258.41 125.23,-347.23 56.71,-161.75 115.09,-328.22 143.24,-404.13 38.33,-103.35 97.22,-253.65 153.97,-398.49 38.25,-97.64 75.22,-191.97 127.47,-332.86zm565.92 752.57c-28.09,72.5 -59.24,154.12 -97.36,256.9 -41.32,111.44 -70.39,191.63 -94.11,258.14l4626.17 1715.76c24.59,-105.35 56.05,-210.29 94.63,-314.33 25.99,-70.06 54.73,-138.31 86,-204.73l-4615.33 -1711.74zm8596.72 2068.85c-191.18,-416.59 -542.57,-760.75 -1008.82,-933.67 -466.26,-172.92 -957.56,-140.94 -1374.9,50.59 -416.59,191.18 -760.75,542.57 -933.67,1008.82 -172.92,466.26 -140.94,957.56 50.59,1374.9 191.18,416.59 542.57,760.75 1008.82,933.67 466.26,172.92 957.56,140.94 1374.9,-50.59 416.59,-191.18 760.75,-542.57 933.67,-1008.82 172.92,-466.26 140.94,-957.56 -50.59,-1374.9zm-11718.13 3696.63c198.24,-534.53 271.7,-922.72 -267.74,-1122.78 -466.27,-172.93 -957.56,-140.94 -1374.9,50.58 -416.59,191.18 -760.75,542.58 -933.67,1008.82 -172.92,466.26 -140.94,957.57 50.59,1374.9 191.18,416.6 542.57,760.76 1008.82,933.68 539.46,200.07 756.27,-194.33 966.99,-762.49 63.86,-172.2 94.09,-258.41 125.23,-347.23 56.71,-161.75 115.09,-328.22 143.24,-404.13 38.33,-103.35 97.22,-253.65 153.97,-398.49 38.25,-97.64 75.22,-191.97 127.47,-332.86zm565.92 752.57c-28.09,72.5 -59.24,154.12 -97.36,256.9 -41.32,111.44 -70.39,191.63 -94.11,258.14l4626.17 1715.76c24.59,-105.35 56.05,-210.29 94.63,-314.33 25.99,-70.06 54.73,-138.31 86,-204.73l-4615.33 -1711.74zm8596.72 2068.85c-191.18,-416.59 -542.57,-760.75 -1008.82,-933.67 -466.26,-172.92 -957.56,-140.94 -1374.9,50.59 -416.59,191.18 -760.75,542.57 -933.67,1008.82 -172.92,466.26 -140.94,957.56 50.59,1374.9 191.18,416.59 542.57,760.75 1008.82,933.67 466.26,172.92 957.56,140.94 1374.9,-50.59 416.59,-191.18 760.75,-542.57 933.67,-1008.82 172.92,-466.26 140.94,-957.56 -50.59,-1374.9zm-11718.13 3696.61c198.24,-534.53 271.7,-922.72 -267.74,-1122.78 -466.27,-172.93 -957.56,-140.94 -1374.9,50.58 -416.59,191.18 -760.75,542.58 -933.67,1008.82 -172.92,466.26 -140.94,957.57 50.59,1374.9 191.18,416.6 542.57,760.76 1008.82,933.68 539.46,200.07 756.27,-194.33 966.99,-762.49 63.86,-172.2 94.09,-258.41 125.23,-347.23 56.71,-161.75 115.09,-328.22 143.24,-404.13 38.33,-103.35 97.22,-253.65 153.97,-398.49 38.25,-97.64 75.22,-191.97 127.47,-332.86zm565.92 752.57c-28.09,72.5 -59.24,154.12 -97.36,256.9 -41.32,111.44 -70.39,191.63 -94.11,258.14l4626.17 1715.76c24.59,-105.35 56.05,-210.29 94.63,-314.33 25.99,-70.06 54.73,-138.31 86,-204.73l-4615.33 -1711.74zm8596.72 2068.85c-191.18,-416.59 -542.57,-760.75 -1008.82,-933.67 -466.26,-172.92 -957.56,-140.94 -1374.9,50.59 -416.59,191.18 -760.75,542.57 -933.67,1008.82 -172.92,466.26 -140.94,957.56 50.59,1374.9 191.18,416.59 542.57,760.75 1008.82,933.67 466.26,172.92 957.56,140.94 1374.9,-50.59 416.59,-191.18 760.75,-542.57 933.67,-1008.82 172.92,-466.26 140.94,-957.56 -50.59,-1374.9zm-3127.19 30072.49l9.16 -10100.66 -1267.9 0 -28.41 10100.66 1287.15 0zm18.54 -20445.12c-603.94,276.76 -1312.57,323.6 -1982.94,74.98 -670.89,-248.82 -1178.08,-747.45 -1455.7,-1352.41 -120.78,-263.18 -197.88,-546.27 -225.88,-837.44l-988.88 -366.76c-93.69,263.03 -210.34,588.67 -356.99,996.24 -150.76,418.99 -262.91,728.44 -329.14,907.57 -327.49,885.73 -345.33,1478.81 -95.54,1981.79 266.12,535.84 847.21,1031.72 1684.84,1677.89 1047.87,808.35 1671.7,1831.98 2031.9,3016.96 107.84,354.76 191.51,723.2 255.62,1103.96l1456.18 0 6.53 -7202.78zm-8.66 9544.46l1.4 -1541.68 -1349.77 0c49.26,496.85 72.67,1011.6 79.1,1541.68l1269.27 0zm-8600.82 -15475.21c198.24,-534.53 271.7,-922.72 -267.74,-1122.78 -466.27,-172.93 -957.56,-140.94 -1374.9,50.58 -416.59,191.18 -760.75,542.58 -933.67,1008.82 -172.92,466.26 -140.94,957.57 50.59,1374.9 191.18,416.6 542.57,760.76 1008.82,933.68 539.46,200.07 756.27,-194.33 966.99,-762.49 63.86,-172.2 94.09,-258.41 125.23,-347.23 56.71,-161.75 115.09,-328.22 143.24,-404.13 38.33,-103.35 97.22,-253.65 153.97,-398.49 38.25,-97.64 75.22,-191.97 127.47,-332.86zm565.92 752.57c-28.09,72.5 -59.24,154.12 -97.36,256.9 -41.32,111.44 -70.39,191.63 -94.11,258.14l4626.17 1715.76c24.59,-105.35 56.05,-210.29 94.63,-314.33 25.99,-70.06 54.73,-138.31 86,-204.73l-4615.33 -1711.74zm8596.72 2068.85c-191.18,-416.59 -542.57,-760.75 -1008.82,-933.67 -466.26,-172.92 -957.56,-140.94 -1374.9,50.59 -416.59,191.18 -760.75,542.57 -933.67,1008.82 -172.92,466.26 -140.94,957.56 50.59,1374.9 191.18,416.59 542.57,760.75 1008.82,933.67 466.26,172.92 957.56,140.94 1374.9,-50.59 416.59,-191.18 760.75,-542.57 933.67,-1008.82 172.92,-466.26 140.94,-957.56 -50.59,-1374.9z"/></g><text x="0" y="60015" fill="#000000" font-size="5px" font-weight="bold" font-family="'Helvetica Neue', Helvetica, Arial-Unicode, Arial, Sans-serif">Created by Olena Panasovska</text><text x="0" y="60020" fill="#000000" font-size="5px" font-weight="bold" font-family="'Helvetica Neue', Helvetica, Arial-Unicode, Arial, Sans-serif">from the Noun Project</text></svg>