<?xml version="1.0" encoding="UTF-8" standalone="no"?>
<svg
   xml:space="preserve"
   version="1.1"
   style="image-rendering:optimizeQuality;shape-rendering:geometricPrecision;text-rendering:geometricPrecision"
   viewBox="0 0 34892.559 56678.461"
   x="0px"
   y="0px"
   fill-rule="evenodd"
   clip-rule="evenodd"
   id="svg2"
   sodipodi:docname="guitar-headstock.svg"
   inkscape:version="1.4.2 (ebf0e940d0, 2025-05-08)"
   width="34892.559"
   height="56678.461"
   xmlns:inkscape="http://www.inkscape.org/namespaces/inkscape"
   xmlns:sodipodi="http://sodipodi.sourceforge.net/DTD/sodipodi-0.dtd"
   xmlns="http://www.w3.org/2000/svg"
   xmlns:svg="http://www.w3.org/2000/svg"><sodipodi:namedview
     id="namedview2"
     pagecolor="#ffffff"
     bordercolor="#666666"
     borderopacity="1.0"
     inkscape:showpageshadow="2"
     inkscape:pageopacity="0.0"
     inkscape:pagecheckerboard="0"
     inkscape:deskcolor="#d1d1d1"
     inkscape:zoom="0.02"
     inkscape:cx="-14750"
     inkscape:cy="12625"
     inkscape:window-width="2560"
     inkscape:window-height="1368"
     inkscape:window-x="0"
     inkscape:window-y="0"
     inkscape:window-maximized="1"
     inkscape:current-layer="g1" /><defs
     id="defs1"><style
       type="text/css"
       id="style1">
   
    .fil0 {fill:black;fill-rule:nonzero}
   
  </style></defs><g
     id="g1"
     transform="translate(-12553.72,-1660.77)"
     style="fill:#f9f9f9"><path
       class="fil0"
       d="m 23842.6,57940.79 c 0,220.05 -178.39,398.44 -398.44,398.44 -220.05,0 -398.44,-178.39 -398.44,-398.44 l 56.01,-19909.75 c 3.73,-1326.94 -84.49,-2550.77 -407.79,-3614.38 -313.51,-1031.4 -853.22,-1919.84 -1756.91,-2616.96 -881.19,-679.77 -898.26,-1248.9 -931.56,-2360.8 l -79.71,-2610.03 h -3338.81 c -31.16,923.13 -259.03,1574.27 -1437.19,1574.27 -716.83,0 -1365.84,-290.59 -1835.64,-760.4 -469.81,-469.8 -760.4,-1118.81 -760.4,-1835.64 0,-716.83 290.59,-1365.84 760.4,-1835.65 469.8,-469.8 1118.81,-760.39 1835.64,-760.39 1168.94,0 1402.42,583.85 1436.44,1468.42 h 3273.9 l -209.15,-6778.44 h -3064 c -31.16,923.13 -259.03,1574.27 -1437.19,1574.27 -716.83,0 -1365.84,-290.59 -1835.64,-760.4 -469.81,-469.8 -760.4,-1118.81 -760.4,-1835.64 0,-716.83 290.59,-1365.84 760.4,-1835.65 469.8,-469.8 1118.81,-760.39 1835.64,-760.39 1168.94,0 1402.42,583.85 1436.44,1468.42 h 2999.08 l -204.31,-6687.7 -2794.02,-68 c -31.16,923.13 -259.03,1574.27 -1437.19,1574.27 -716.83,0 -1365.84,-290.59 -1835.64,-760.4 -469.81,-469.8 -760.4,-1118.81 -760.4,-1835.64 0,-716.83 290.59,-1365.84 760.4,-1835.65 469.8,-469.8 1118.81,-760.39 1835.64,-760.39 1168.94,0 1402.42,583.85 1436.44,1468.42 h 2729.11 l -80.58,-2637.4 0.99,-11.61 c 53,-626.43 106.56,-1203.1 417.94,-1677.53 326.44,-497.37 888.8,-821.39 1925.92,-857.69 l 12.5,-1.56 h 16815.84 l 12.5,1.56 c 1037.13,36.3 1599.48,360.32 1925.92,857.69 311.38,474.43 364.94,1051.1 417.94,1677.53 l 0.98,11.61 -80.57,2637.4 h 2729.11 c 34.02,-884.57 267.5,-1468.42 1436.44,-1468.42 716.83,0 1365.84,290.59 1835.65,760.39 469.8,469.81 760.39,1118.82 760.39,1835.65 0,716.83 -290.59,1365.84 -760.39,1835.64 -469.81,469.81 -1118.82,760.4 -1835.65,760.4 -1178.16,0 -1406.03,-651.14 -1437.19,-1574.27 h -2794.02 l -204.31,6755.7 h 2999.08 c 34.02,-884.57 267.5,-1468.42 1436.44,-1468.42 716.83,0 1365.84,290.59 1835.65,760.39 469.8,469.81 760.39,1118.82 760.39,1835.65 0,716.83 -290.59,1365.84 -760.39,1835.64 -469.81,469.81 -1118.82,760.4 -1835.65,760.4 -1178.16,0 -1406.03,-651.14 -1437.19,-1574.27 h -3064 l -209.15,6778.44 h 3273.9 c 34.02,-884.57 267.5,-1468.42 1436.44,-1468.42 716.83,0 1365.84,290.59 1835.65,760.39 469.8,469.81 760.39,1118.82 760.39,1835.65 0,716.83 -290.59,1365.84 -760.39,1835.64 -469.81,469.81 -1118.82,760.4 -1835.65,760.4 -1178.16,0 -1406.03,-651.14 -1437.19,-1574.27 h -3338.81 l -79.71,2610.03 c -33.3,1111.9 -50.37,1681.03 -931.56,2360.8 -903.67,697.11 -1443.4,1585.56 -1756.91,2616.96 -323.29,1063.62 -411.52,2287.44 -407.79,3614.38 l 56.01,19909.75 c 0,220.05 -178.39,398.44 -398.44,398.44 -220.05,0 -398.44,-178.39 -398.44,-398.44 l -24.22,-8609.09 h -1273.66 l -24.24,8609.09 c 0,137.52 -111.5,249.02 -249.02,249.02 -137.52,0 -249.02,-111.5 -249.02,-249.02 l 24.2,-8609.09 h -1517.51 l -13.6,8609.09 c 0,137.52 -111.5,249.02 -249.02,249.02 -137.52,0 -249.02,-111.5 -249.02,-249.02 l 13.57,-8609.09 H 31083.4 l -4.3,8609.09 c 0,137.52 -111.5,249.02 -249.02,249.02 -137.52,0 -249.02,-111.5 -249.02,-249.02 l 4.3,-8609.09 h -1135.33 c -0.12,2869.69 -0.62,5739.39 -2.05,8609.09 0,137.52 -111.5,249.02 -249.02,249.02 -137.52,0 -249.02,-111.5 -249.02,-249.02 l 4.3,-8609.09 h -1273.3 l -5.67,8609.09 c 0,137.52 -111.5,249.02 -249.02,249.02 -137.52,0 -249.02,-111.5 -249.02,-249.02 l 5.67,-8609.09 h -1512.95 l -24.22,8609.09 c 0,137.52 -111.5,249.02 -249.02,249.02 -137.52,0 -249.02,-111.5 -249.02,-249.02 l 24.22,-8609.09 h -1305.09 z m 12288.33,-9409.09 -28.41,-10100.66 h -1175.29 l -38.43,504.66 -27.02,9596 z m -1767.24,0 27.07,-9633.1 35.6,-467.56 h -1516.67 l -49.42,560.63 -15.07,9540.03 z m -2016.57,0 15.11,-9582.99 45.63,-517.67 h -1234.83 l -84.93,1505.24 -4.3,8595.42 z m -1761.36,0 4.3,-8622.76 83.39,-1477.9 h -1311.86 l 88.28,1544.04 c 0,2852.2 0.25,5704.41 0.19,8556.62 z m -1631.12,0 3.73,-7470.48 -6.46,-1058.8 -89.87,-1571.38 h -1237.77 l 63.38,713.83 -6.18,9386.83 z m -1771.21,0 6.17,-9365.88 -65.24,-734.78 h -1423.75 l -28.41,10100.66 z m -2009.27,0 28.42,-10100.66 h -1305.1 l -28.41,10100.66 z m 3642.13,-10900.66 -88.17,-1541.68 h -1309.5 l 135.9,1541.68 z m -155.98,-2341.68 -2186.23,-17348.64 c -130.91,300.78 -317.11,571.95 -545.81,800.65 -250.86,250.86 -552.84,450.62 -888.94,582.32 l 625.49,4309.61 0.3,2.29 c 92.82,70.77 180.75,147.63 263.15,230.03 469.8,469.81 760.39,1118.82 760.39,1835.65 0,577.7 -188.78,1111.33 -507.95,1542.63 l 1149.57,8045.46 z m -2515.77,-19973.99 -639.52,-5162.73 c -406.52,264.12 -891.54,417.58 -1412.4,417.58 -716.83,0 -1365.84,-290.59 -1835.64,-760.4 -232.04,-232.04 -420.33,-507.82 -551.51,-813.87 h -1526.95 l 204.31,6755.7 h 1383.78 c 126.02,-253.49 292.26,-483.46 490.37,-681.57 469.8,-469.8 1118.81,-760.39 1835.64,-760.39 716.83,0 1365.84,290.59 1835.65,760.39 77.09,77.09 149.33,159.04 216.27,245.29 z m -183.1,-5539.39 3202.57,25513.38 h 1704.87 L 34067.71,9805.74 c -467.43,-469.47 -756.37,-1116.79 -756.37,-1831.56 0,-716.83 290.59,-1365.84 760.4,-1835.65 469.8,-469.8 1118.81,-760.39 1835.64,-760.39 716.83,0 1365.84,290.59 1835.65,760.39 204.97,204.98 375.83,444.07 503.32,708.03 h 1640.79 l 79.28,-2595 c -43.69,-515.58 -88.02,-988.06 -288.84,-1294.04 -186.21,-283.71 -551.22,-470.69 -1269.66,-497.83 v 1.08 H 21592.08 v -1.08 c -718.43,27.14 -1083.45,214.12 -1269.66,497.83 -200.82,305.98 -245.15,778.46 -288.84,1294.04 l 79.28,2595 h 1640.79 c 127.5,-263.95 298.35,-503.05 503.33,-708.03 469.8,-469.8 1118.81,-760.39 1835.64,-760.39 716.83,0 1365.84,290.59 1835.65,760.39 469.8,469.81 760.39,1118.82 760.39,1835.65 0,699.79 -276.97,1334.91 -727.22,1801.8 z m 3266.26,26313.38 88.15,1541.68 h 1402.75 l 86.99,-1541.68 z m -2175.01,1541.68 -135.9,-1541.68 h -1464.91 l 200.05,1541.68 z m -226.6,-2341.68 -1083.59,-7583.74 c -367.55,302.91 -819.85,506.67 -1315.95,570.39 l 921.12,7013.35 z m -1676.4,2341.68 -200.05,-1541.68 h -1131.9 c 49.26,496.85 72.67,1011.6 79.09,1541.68 z m -304.63,-2341.68 -919.01,-6997.31 c -650.49,-41.2 -1235.94,-322 -1669.07,-755.14 -204.98,-204.98 -375.84,-444.08 -503.34,-708.04 h -1030.33 l 79.04,2588.15 c 25.79,860.89 39,1301.54 622.18,1751.42 1047.88,808.35 1671.71,1831.98 2031.91,3016.96 107.84,354.76 191.51,723.2 255.62,1103.96 z m 270.01,-11974.95 -560.34,-3853.67 c -149.96,26.95 -304.39,41.03 -462.11,41.03 -716.83,0 -1365.84,-290.59 -1835.64,-760.4 -238.71,-238.71 -431.12,-523.7 -562.68,-840.33 h -1245.8 l 209.15,6778.44 h 1047.83 c 131.18,-306.05 319.46,-581.82 551.5,-813.86 469.8,-469.8 1118.81,-760.39 1835.64,-760.39 363.04,0 708.67,74.57 1022.45,209.18 z m 9410.35,-13142.29 -630.91,5094.18 c 55.76,-68.38 114.9,-133.89 177.23,-196.22 469.8,-469.8 1118.81,-760.39 1835.64,-760.39 716.83,0 1365.84,290.59 1835.65,760.39 198.1,198.11 364.34,428.08 490.36,681.57 h 1383.78 l 204.31,-6755.7 h -1526.95 c -131.17,306.06 -319.46,581.83 -551.5,813.87 -469.81,469.81 -1118.82,760.4 -1835.65,760.4 -507.92,0 -981.77,-145.93 -1381.96,-398.1 z m -973.79,7825.76 -2179.05,17291.48 h 1330.03 l 1144.32,-8008.73 c -335.92,-437.55 -535.59,-985.15 -535.59,-1579.36 0,-716.83 290.59,-1365.84 760.4,-1835.65 93.21,-93.21 193.5,-179.33 299.94,-257.56 l 620.16,-4272.4 c -348.61,-131.42 -661.51,-335.69 -920.1,-594.29 -214.12,-214.12 -390.98,-465.47 -520.11,-743.49 z m -2246.49,18091.48 -86.98,1541.68 h 1260.22 l 135.89,-1541.68 z m 2981.84,-8359.84 -1080.18,7559.84 h 1478.42 l 920.6,-7009.4 c -495.57,-57.34 -948.62,-254.26 -1318.84,-550.44 z m -1170.88,8359.84 -135.9,1541.68 h 1507.08 l 117.4,-1541.68 z m 2361.27,-16623.06 -557.45,3833.39 c 304.4,-125.32 637.87,-194.46 987.46,-194.46 716.83,0 1365.84,290.59 1835.65,760.39 232.03,232.04 420.32,507.81 551.49,813.86 h 1047.83 l 209.15,-6778.44 h -1245.8 c -131.56,316.63 -323.96,601.62 -562.67,840.33 -469.8,469.8 -1118.82,760.4 -1835.65,760.4 -146.49,0 -290.14,-12.14 -430.01,-35.47 z m 629.77,8823.44 -919.31,6999.62 h 1100.11 c 64.11,-380.76 147.79,-749.2 255.62,-1103.96 360.2,-1184.98 984.04,-2208.61 2031.91,-3016.96 583.17,-449.87 596.39,-890.53 622.18,-1751.42 l 79.04,-2588.15 h -1030.33 c -127.49,263.96 -298.35,503.06 -503.33,708.04 -425.76,425.76 -998.69,704.33 -1635.89,752.83 z m -1001.6,7799.62 -117.39,1541.68 h 1115.02 c 6.43,-530.08 29.84,-1044.83 79.09,-1541.68 z m 3377.38,-10060.49 h 4934.17 c 0.75,-67 1.28,-151.71 1.28,-274.69 0,-123.21 -0.54,-207.88 -1.31,-274.7 h -4923.03 c 6.18,73.11 9.39,147.08 9.39,221.79 0,110.97 -6.98,220.3 -20.5,327.6 z m 6367.32,-2017.81 c -575.31,0 -641.43,389.46 -641.43,959.5 0,195.27 1.46,274.77 2.96,357.17 3.23,177.22 6.6,361.45 6.6,426.45 0,62.96 -3.31,247.34 -6.54,427.1 -1.52,85.4 -3.02,168.41 -3.02,370.72 0,605.96 66.12,1051.14 641.43,1051.14 496,0 945.03,-201.02 1270.03,-526.02 324.99,-324.99 526.01,-774.02 526.01,-1270.02 0,-496 -201.03,-945.04 -526.01,-1270.03 -324.99,-324.98 -774.03,-526.01 -1270.03,-526.01 z m -6354.08,-6910.02 h 4920.93 c 0.75,-67 1.28,-151.71 1.28,-274.69 0,-123.21 -0.54,-207.88 -1.31,-274.7 h -4937.63 c 15.79,115.77 23.99,233.97 23.99,354.08 0,65.7 -2.46,130.83 -7.26,195.31 z m 6354.08,-2017.81 c -575.31,0 -641.43,389.46 -641.43,959.5 0,195.27 1.46,274.77 2.96,357.17 3.23,177.22 6.6,361.45 6.6,426.45 0,62.96 -3.31,247.34 -6.54,427.1 -1.52,85.4 -3.02,168.41 -3.02,370.72 0,605.96 66.12,1051.14 641.43,1051.14 496,0 945.03,-201.02 1270.03,-526.02 324.99,-324.99 526.01,-774.02 526.01,-1270.02 0,-496 -201.03,-945.04 -526.01,-1270.03 -324.99,-324.98 -774.03,-526.01 -1270.03,-526.01 z M 38494.03,8195.95 h 4923.06 c 0.75,-67 1.28,-151.71 1.28,-274.69 0,-123.21 -0.54,-207.88 -1.31,-274.7 h -4934.14 c 13.52,107.31 20.5,216.65 20.5,327.62 0,74.71 -3.21,148.67 -9.39,221.77 z m 6356.21,-2017.81 c -575.31,0 -641.43,389.46 -641.43,959.5 0,195.27 1.46,274.77 2.96,357.17 3.23,177.22 6.6,361.45 6.6,426.45 0,62.96 -3.31,247.34 -6.54,427.1 -1.52,85.4 -3.02,168.41 -3.02,370.72 0,605.96 66.12,1051.14 641.43,1051.14 496,0 945.03,-201.02 1270.03,-526.02 324.99,-324.99 526.01,-774.02 526.01,-1270.02 0,-496 -201.03,-945.04 -526.01,-1270.03 -324.99,-324.98 -774.03,-526.01 -1270.03,-526.01 z m -8942.86,17727.09 c -496,0 -945.03,201.02 -1270.02,526.01 -325,325 -526.02,774.03 -526.02,1270.03 0,496 201.03,945.04 526.02,1270.02 324.98,324.99 774.02,526.02 1270.02,526.02 496,0 945.03,-201.02 1270.03,-526.02 324.99,-324.99 526.01,-774.02 526.01,-1270.02 0,-496 -201.03,-945.04 -526.01,-1270.03 -324.99,-324.98 -774.03,-526.01 -1270.03,-526.01 z m 0,-8795.54 c -496,0 -945.03,201.02 -1270.02,526.01 -325,325 -526.02,774.03 -526.02,1270.03 0,496 201.03,945.04 526.02,1270.02 324.98,324.99 774.02,526.02 1270.02,526.02 496,0 945.03,-201.02 1270.03,-526.02 324.99,-324.99 526.01,-774.02 526.01,-1270.02 0,-496 -201.03,-945.04 -526.01,-1270.03 -324.99,-324.98 -774.03,-526.01 -1270.03,-526.01 z m 0,-8931.55 c -496,0 -945.03,201.02 -1270.02,526.01 -325,325 -526.02,774.03 -526.02,1270.03 0,496 201.03,945.04 526.02,1270.02 324.98,324.99 774.02,526.02 1270.02,526.02 496,0 945.03,-201.02 1270.03,-526.02 324.99,-324.99 526.01,-774.02 526.01,-1270.02 0,-496 -201.03,-945.04 -526.01,-1270.03 -324.99,-324.98 -774.03,-526.01 -1270.03,-526.01 z M 16582.91,26028.87 h 4934.17 c -13.52,-107.3 -20.5,-216.63 -20.5,-327.6 0,-74.71 3.2,-148.68 9.39,-221.79 h -4923.03 c -0.77,66.82 -1.31,151.49 -1.31,274.7 0,122.98 0.53,207.69 1.28,274.69 z m -791.72,-1058.31 c 0,-570.04 -66.12,-959.5 -641.43,-959.5 -496,0 -945.03,201.02 -1270.02,526.01 -325,325 -526.02,774.03 -526.02,1270.03 0,496 201.03,945.04 526.02,1270.02 324.98,324.99 774.02,526.02 1270.02,526.02 575.31,0 641.43,-445.18 641.43,-1051.14 0,-202.31 -1.5,-285.32 -3.02,-370.72 -3.23,-179.76 -6.54,-364.14 -6.54,-427.1 0,-65 3.37,-249.23 6.6,-426.45 1.5,-82.4 2.96,-161.9 2.96,-357.17 z m 791.72,-7869.52 h 4920.93 c -4.8,-64.48 -7.26,-129.61 -7.26,-195.31 0,-120.11 8.2,-238.31 23.99,-354.08 h -4937.63 c -0.77,66.82 -1.31,151.49 -1.31,274.7 0,122.98 0.53,207.69 1.28,274.69 z m -791.72,-1058.31 c 0,-570.04 -66.12,-959.5 -641.43,-959.5 -496,0 -945.03,201.02 -1270.02,526.01 -325,325 -526.02,774.03 -526.02,1270.03 0,496 201.03,945.04 526.02,1270.02 324.98,324.99 774.02,526.02 1270.02,526.02 575.31,0 641.43,-445.18 641.43,-1051.14 0,-202.31 -1.5,-285.32 -3.02,-370.72 -3.23,-179.76 -6.54,-364.14 -6.54,-427.1 0,-65 3.37,-249.23 6.6,-426.45 1.5,-82.4 2.96,-161.9 2.96,-357.17 z m 791.72,-7846.78 h 4923.06 c -6.19,-73.11 -9.39,-147.06 -9.39,-221.77 0,-110.97 6.99,-220.31 20.5,-327.62 h -4934.14 c -0.77,66.82 -1.31,151.49 -1.31,274.7 0,122.98 0.53,207.69 1.28,274.69 z m -791.72,-1058.31 c 0,-570.04 -66.12,-959.5 -641.43,-959.5 -496,0 -945.03,201.02 -1270.02,526.01 -325,325 -526.02,774.03 -526.02,1270.03 0,496 201.03,945.04 526.02,1270.02 324.98,324.99 774.02,526.02 1270.02,526.02 575.31,0 641.43,-445.18 641.43,-1051.14 0,-202.31 -1.5,-285.32 -3.02,-370.72 -3.23,-179.76 -6.54,-364.14 -6.54,-427.1 0,-65 3.37,-249.23 6.6,-426.45 1.5,-82.4 2.96,-161.9 2.96,-357.17 z m 9571.46,17293.6 c -324.99,-324.98 -774.03,-526.01 -1270.03,-526.01 -496,0 -945.03,201.02 -1270.02,526.01 -325,325 -526.02,774.03 -526.02,1270.03 0,496 201.03,945.04 526.02,1270.02 324.98,324.99 774.02,526.02 1270.02,526.02 496,0 945.03,-201.02 1270.03,-526.02 324.99,-324.99 526.01,-774.02 526.01,-1270.02 0,-496 -201.03,-945.04 -526.01,-1270.03 z m 0,-8795.54 c -324.99,-324.98 -774.03,-526.01 -1270.03,-526.01 -496,0 -945.03,201.02 -1270.02,526.01 -325,325 -526.02,774.03 -526.02,1270.03 0,496 201.03,945.04 526.02,1270.02 324.98,324.99 774.02,526.02 1270.02,526.02 496,0 945.03,-201.02 1270.03,-526.02 324.99,-324.99 526.01,-774.02 526.01,-1270.02 0,-496 -201.03,-945.04 -526.01,-1270.03 z m 0,-8931.55 c -324.99,-324.98 -774.03,-526.01 -1270.03,-526.01 -496,0 -945.03,201.02 -1270.02,526.01 -325,325 -526.02,774.03 -526.02,1270.03 0,496 201.03,945.04 526.02,1270.02 324.98,324.99 774.02,526.02 1270.02,526.02 496,0 945.03,-201.02 1270.03,-526.02 324.99,-324.99 526.01,-774.02 526.01,-1270.02 0,-496 -201.03,-945.04 -526.01,-1270.03 z"
       id="path1"
       style="fill:#ffffff;fill-opacity:1"
       sodipodi:nodetypes="csccsscccscsssccccscsssccccscssscccccccccsscccscsssccccscsssccccscssscccscccsccccsccccsccccsccccsccccsccccscccccccccccccccccccccccccccccccccccccccccccccccccccccccccsccccscccccscccccssscccccsssccccsccccccccsscscccccccccccccccccccccccsccccsccccssccccsscccsscccccsscccccsscccccccccccccccccccccscccccsscccccscccsccccccccsccscsssscsssscsccsccscsssscsssscsccsccscsssscsssscsssscssscsssscssscsssscssscsccsccscsssscsscsssccsccscsssscsscsssccsccscsssscsscscscssscsssccssscsssccssscsssc" /><g
       id="g2"
       transform="translate(-6661.9245)"><rect
         style="fill:#ffff00;stroke-width:1.131;stroke-linecap:round;stroke-linejoin:round"
         id="rect1"
         width="6600"
         height="3500"
         x="5151.7202"
         y="6260.77" /><rect
         style="fill:#ffff00;stroke-width:1.131;stroke-linecap:round;stroke-linejoin:round;image-rendering:optimizeQuality;shape-rendering:geometricPrecision;text-rendering:geometricPrecision"
         id="rect1-5"
         width="6600"
         height="3500"
         x="5151.7202"
         y="14710.77" /><rect
         style="fill:#ffff00;stroke-width:1.131;stroke-linecap:round;stroke-linejoin:round;image-rendering:optimizeQuality;shape-rendering:geometricPrecision;text-rendering:geometricPrecision"
         id="rect1-9"
         width="6600"
         height="3500"
         x="5251.7202"
         y="24010.77" /><rect
         style="fill:#0000ff;stroke-width:1.1646;stroke-linecap:round;stroke-linejoin:round;image-rendering:optimizeQuality;shape-rendering:geometricPrecision;text-rendering:geometricPrecision"
         id="rect1-7"
         width="6600"
         height="3711.0486"
         x="12051.721"
         y="1664.3656" /><rect
         style="fill:#0000ff;stroke-width:1.1646;stroke-linecap:round;stroke-linejoin:round;image-rendering:optimizeQuality;shape-rendering:geometricPrecision;text-rendering:geometricPrecision"
         id="rect1-7-3"
         width="6600"
         height="3711.0486"
         x="12443.474"
         y="10572.024" /><rect
         style="fill:#0000ff;stroke-width:1.1646;stroke-linecap:round;stroke-linejoin:round;image-rendering:optimizeQuality;shape-rendering:geometricPrecision;text-rendering:geometricPrecision"
         id="rect1-7-6"
         width="6600"
         height="3711.0486"
         x="12465.645"
         y="19475.363" /></g></g></svg>
