<svg xmlns="http://www.w3.org/2000/svg" xmlns:xlink="http://www.w3.org/1999/xlink" xml:space="preserve" version="1.1" style="shape-rendering:geometricPrecision;text-rendering:geometricPrecision;image-rendering:optimizeQuality;" viewBox="0 0 60000 75000" x="0px" y="0px" fill-rule="evenodd" clip-rule="evenodd"><defs><style type="text/css">
   
    .fil0 {fill:black;fill-rule:nonzero}
   
  </style></defs><g><path class="fil0" d="M24082.95 14384.1c716.83,0 1365.84,290.59 1835.65,760.39 469.8,469.81 760.39,1118.82 760.39,1835.65 0,699.79 -276.97,1334.91 -727.22,1801.8l3235.54 25776.06 116.89 2044.35 1532.01 0 116.89 -2044.35 2377.98 -18944.31c5.68,-64.71 13.76,-128.74 24.1,-192l818.22 -6518.32c-31.37,-28.45 -62.04,-57.65 -91.98,-87.59 -469.81,-469.8 -760.4,-1118.81 -760.4,-1835.64 0,-716.83 290.59,-1365.84 760.4,-1835.65 469.8,-469.8 1118.81,-760.39 1835.64,-760.39 716.83,0 1365.84,290.59 1835.65,760.39 204.97,204.98 375.83,444.07 503.32,708.03l3275.27 0 1285.89 -13206.88c40.52,-416.2 -74.74,-682.04 -249.98,-855.89 -192.06,-190.52 -468.57,-296.76 -705.6,-365.94 -238.54,-69.62 -434.8,-85.16 -634.11,-15.31 -229.28,80.35 -491.24,270.24 -842.13,606.96l-7590.17 8254.05 -0.27 -0.25c-3.47,3.77 -7.02,7.52 -10.67,11.19 -675.15,678.54 -1182.19,1037.86 -1602.68,1234.78 -449.76,210.63 -783.02,236.39 -1110.35,255.98 -358.61,21.45 -712.76,15.02 -1187.65,-201.19 -430.88,-196.18 -950.68,-570.58 -1655.54,-1277.26 -7.99,-7.37 -15.74,-15.11 -23.23,-23.25l-7590.17 -8254.05c-350.88,-336.72 -612.85,-526.61 -842.13,-606.96 -199.31,-69.85 -395.57,-54.31 -634.11,15.31 -237.03,69.18 -513.54,175.42 -705.6,365.94 -175.24,173.83 -290.49,439.69 -249.98,855.89l1285.89 13206.88 3275.27 0c127.5,-263.95 298.35,-503.05 503.33,-708.03 469.8,-469.8 1118.81,-760.39 1835.64,-760.39zm7252.86 32218.25l1262.81 0 174.65 -1981.35 1174.78 -8221.96c-390.8,-454.39 -627.03,-1045.53 -627.03,-1691.81 0,-716.83 290.59,-1365.84 760.4,-1835.65 127.32,-127.32 267.83,-241.44 419.26,-340.22l603.19 -4221.6c-389.79,-128.47 -738.8,-346.77 -1022.45,-630.43 -169.77,-169.77 -316.12,-362.96 -433.84,-574.28l-2198.34 17513.18 -113.43 1984.12zm1764.64 0l1402.18 0 255.23 -1966.82 0 -0.98 963.83 -7338.55c-494.05,-36.78 -949.59,-211.83 -1328.08,-486.61l-1122.31 7854.66 -170.85 1938.3zm1904.43 0l1096.22 0 -0.01 -4.85c-4.18,-2163.86 -7.96,-4111.21 1712.48,-5719.46 115.52,-107.99 231.53,-241.5 326.36,-415.59 97.89,-179.69 176.57,-406.49 215.48,-699.49l521.67 -3928.13 -621.04 0c-127.49,263.96 -298.35,503.06 -503.33,708.04 -401.35,401.35 -933.5,671.86 -1526.98,742.19l-973.73 7413.95 -0.13 -0.02 -246.99 1903.36zm38.48 -14340.4c273.02,-97.58 567.15,-150.76 873.7,-150.76 716.83,0 1365.84,290.59 1835.65,760.39 232.03,232.04 420.32,507.81 551.49,813.86l858.33 0 909.23 -6846.44 -1756.38 0c-131.56,316.63 -323.96,601.62 -562.67,840.33 -469.81,469.81 -1118.82,760.4 -1835.65,760.4 -109.97,0 -218.32,-6.86 -324.69,-20.14l-549.01 3842.36zm-1013.72 -8200.56c17.01,-18.01 34.26,-35.83 51.78,-53.35 469.8,-469.8 1118.81,-760.39 1835.64,-760.39 716.83,0 1365.84,290.59 1835.65,760.39 198.1,198.11 364.34,428.08 490.36,681.57l2114.14 0 888.15 -6687.7 -2941.15 0c-131.17,306.06 -319.46,581.83 -551.5,813.87 -469.81,469.81 -1118.82,760.4 -1835.65,760.4 -466.24,0 -903.76,-122.96 -1281.97,-338.19l-605.45 4823.4zm-2833.45 34987.47c0,137.52 -111.5,249.02 -249.02,249.02 -137.52,0 -249.02,-111.5 -249.02,-249.02l-0.28 -711.2 -1255.33 0 -0.25 637.12c0,137.52 -111.5,249.02 -249.02,249.02 -137.52,0 -249.02,-111.5 -249.02,-249.02l0.32 -637.12 -1273.3 0 -0.47 721.77c0,137.52 -111.5,249.02 -249.02,249.02 -137.52,0 -249.02,-111.5 -249.02,-249.02l0.47 -721.77 -1512.95 0 -1.85 658.24c0,137.52 -111.5,249.02 -249.02,249.02 -137.52,0 -249.02,-111.5 -249.02,-249.02l1.85 -658.24 -1305.09 0 -1.79 637.12c0,220.05 -178.39,398.44 -398.44,398.44 -220.05,0 -398.44,-178.39 -398.44,-398.44l33.58 -11937.78c0.34,-124.04 1.03,-244.38 1.7,-364.74 10.87,-1931.97 21.81,-3877.88 -1416.28,-5179.03 -175.09,-158.42 -354.12,-356.74 -503.08,-621.77 -147.14,-261.82 -265.05,-588.4 -320.42,-1005.38l-535.37 -4031.25 -3741.33 0c-31.16,923.13 -259.03,1574.27 -1437.19,1574.27 -716.83,0 -1365.84,-290.59 -1835.64,-760.4 -469.81,-469.8 -760.4,-1118.81 -760.4,-1835.64 0,-716.83 290.59,-1365.84 760.4,-1835.65 469.8,-469.8 1118.81,-760.39 1835.64,-760.39 1168.94,0 1402.42,583.85 1436.44,1468.42l3456.64 0 -909.23 -6846.44 -2546.66 0c-31.16,923.13 -259.03,1574.27 -1437.19,1574.27 -716.83,0 -1365.84,-290.59 -1835.64,-760.4 -469.81,-469.8 -760.4,-1118.81 -760.4,-1835.64 0,-716.83 290.59,-1365.84 760.4,-1835.65 469.8,-469.8 1118.81,-760.39 1835.64,-760.39 1168.94,0 1402.42,583.85 1436.44,1468.42l2261.96 0 -888.15 -6687.7 -1373.06 0c-31.16,923.13 -259.03,1574.27 -1437.19,1574.27 -716.83,0 -1365.84,-290.59 -1835.64,-760.4 -469.81,-469.8 -760.4,-1118.81 -760.4,-1835.64 0,-716.83 290.59,-1365.84 760.4,-1835.65 469.8,-469.8 1118.81,-760.39 1835.64,-760.39 1168.94,0 1402.42,583.85 1436.44,1468.42l1091.12 0 -1278.59 -13131.88c-67.92,-697.74 151.61,-1169.52 481.24,-1496.51 312.8,-310.3 711.33,-468.19 1046.22,-565.94 396.47,-115.72 738.53,-135.98 1118.49,-2.81 347.41,121.76 702.47,370.43 1144.64,796.5 5.88,5.66 11.52,11.47 16.98,17.39l0.21 -0.2 7595.67 8260.04c630.35,632.1 1072.88,956.81 1422.33,1115.91 310.04,141.16 556.82,144.43 809.51,129.31 251.57,-15.06 506.68,-34.37 819.73,-180.98 340.24,-159.35 767.48,-466.78 1363.63,-1064.45l7595.46 -8259.83c9.11,-9.9 18.6,-19.22 28.44,-27.99 436.95,-419.45 788.95,-664.98 1133.39,-785.7 379.96,-133.17 722.02,-112.91 1118.49,2.81 334.9,97.75 733.42,255.64 1046.22,565.94 329.63,327 549.17,798.77 481.24,1496.51l-1278.59 13131.88 1091.12 0c34.02,-884.57 267.5,-1468.42 1436.44,-1468.42 716.83,0 1365.84,290.59 1835.65,760.39 469.8,469.81 760.39,1118.82 760.39,1835.65 0,716.83 -290.59,1365.84 -760.39,1835.64 -469.81,469.81 -1118.82,760.4 -1835.65,760.4 -1178.16,0 -1406.03,-651.14 -1437.19,-1574.27l-1373.06 0 -888.15 6687.7 2261.96 0c34.02,-884.57 267.5,-1468.42 1436.44,-1468.42 716.83,0 1365.84,290.59 1835.65,760.39 469.8,469.81 760.39,1118.82 760.39,1835.65 0,716.83 -290.59,1365.84 -760.39,1835.64 -469.81,469.81 -1118.82,760.4 -1835.65,760.4 -1178.16,0 -1406.03,-651.14 -1437.19,-1574.27l-2546.66 0 -909.23 6846.44 3456.64 0c34.02,-884.57 267.5,-1468.42 1436.44,-1468.42 716.83,0 1365.84,290.59 1835.65,760.39 469.8,469.81 760.39,1118.82 760.39,1835.65 0,716.83 -290.59,1365.84 -760.39,1835.64 -469.81,469.81 -1118.82,760.4 -1835.65,760.4 -1178.16,0 -1406.03,-651.14 -1437.19,-1574.27l-3741.33 0 -535.37 4031.25c-53.22,400.77 -165.33,719.24 -306.1,977.63 -143.81,263.98 -314.4,461.47 -482.6,618.71 -1466.64,1371 -1463.19,3153.93 -1459.36,5135.08 0.27,145.48 0.56,292.03 0.3,439.5l27.93 12001.3c0,220.05 -178.39,398.44 -398.44,398.44 -220.05,0 -398.44,-178.39 -398.44,-398.44l-1.63 -700.64 -1149.52 0 1.94 690.06c0,137.52 -111.5,249.02 -249.02,249.02 -137.52,0 -249.02,-111.5 -249.02,-249.02l-1.94 -690.06 -1512.95 0 0.46 700.62c0,137.52 -111.5,249.02 -249.02,249.02 -137.52,0 -249.02,-111.5 -249.02,-249.02l-0.46 -700.62 -1273.3 0 0.35 711.2zm-498.46 -1511.2c-0.19,-2597.9 2.02,-5195.8 2.42,-7793.63l-1259.89 0c0.41,2597.83 2.68,5195.73 2.44,7793.63l1255.03 0zm4.6 -8593.63l88.14 -1541.68 -1440.53 0 88.14 1541.68 1264.25 0zm587.74 -1541.68l-88.14 1541.68 1261.01 0 -0.52 -793.2 66.46 -748.48 -1238.81 0zm-96.36 2341.68l-2 323.15 3.73 7470.48 1273.17 0 -5.14 -7793.63 -1269.76 0zm1835.09 -2341.68l-68.32 769.43 0.51 772.25 1492.71 0 -4.34 -1541.68 -1420.56 0zm-67.28 2341.68l5.13 7793.63 1511.23 0 -21.93 -7793.63 -1494.43 0zm1985.88 -2341.68l4.34 1541.68 1154.09 0 -3.59 -1541.68 -1154.84 0zm6.59 2341.68l21.93 7793.63 1149.91 0 -18.14 -7793.63 -1153.7 0zm-11094.59 7793.63l1305.09 0 21.93 -7793.63 -1305.09 0 -21.93 7793.63zm1803.13 0l1511.23 0 5.13 -7793.63 -1494.44 0 -21.92 7793.63zm2009.27 0l1273.17 0 3.73 -7470.48 -1.97 -323.15 -1269.8 0 -5.13 7793.63zm-2176.45 -38379.06c-406.52,264.12 -891.54,417.58 -1412.4,417.58 -716.83,0 -1365.84,-290.59 -1835.64,-760.4 -232.04,-232.04 -420.33,-507.82 -551.51,-813.87l-2941.15 0 888.15 6687.7 2114.14 0c126.02,-253.49 292.26,-483.46 490.37,-681.57 469.8,-469.8 1118.81,-760.39 1835.64,-760.39 716.83,0 1365.84,290.59 1835.65,760.39 77.09,77.09 149.33,159.04 216.27,245.29l-639.52 -5094.73zm969.06 7720.08c-130.91,300.78 -317.11,571.95 -545.81,800.65 -250.86,250.86 -552.84,450.61 -888.94,582.31l625.49 4377.62 0.3 2.29c92.82,70.77 180.75,147.63 263.15,230.03 469.8,469.81 760.39,1118.82 760.39,1835.65 0,577.7 -188.78,1111.33 -507.95,1542.63l1196.1 8371.14 174.65 1981.35 1262.85 0 -113.47 -1984.12 -2226.76 -17739.55zm-1919.35 1520.02c-149.96,26.94 -304.39,41.03 -462.11,41.03 -716.83,0 -1365.84,-290.59 -1835.64,-760.4 -238.71,-238.71 -431.12,-523.7 -562.68,-840.33l-1756.38 0 909.23 6846.44 858.33 0c131.18,-306.05 319.46,-581.82 551.5,-813.86 469.8,-469.8 1118.81,-760.39 1835.64,-760.39 363.04,0 708.67,74.57 1022.45,209.18l-560.34 -3921.67zm1187.77 8312.88c-367.55,302.91 -819.85,506.67 -1315.95,570.39l965.67 7352.58 0 0.98 255.22 1966.82 1402.19 0 -170.85 -1938.3 -1136.28 -7952.47zm-1816.45 586.43c-650.49,-41.2 -1235.94,-322 -1669.07,-755.14 -204.98,-204.98 -375.84,-444.08 -503.34,-708.04l-621.04 0 521.67 3928.13c40.02,301.34 123.28,533.89 226.68,717.88 101.59,180.75 222.59,315.01 340.58,421.77 1682.93,1522.68 1690.69,3615.27 1679.19,5699.74l1244.48 0 -246.99 -1903.36 -0.13 0.02 -972.03 -7401zm5022.18 11646.02l-88.17 -1541.68 -1238.86 0 66.45 748.48 -0.52 793.2 1261.1 0zm-1759.14 0l0.51 -772.25 -68.32 -769.43 -1420.57 0 -4.34 1541.68 1492.72 0zm-1990.75 0l4.34 -1541.68 -1305.1 0 -4.33 1541.68 1305.09 0zm164.31 -33233.92c-324.99,-324.98 -774.03,-526.01 -1270.03,-526.01 -496,0 -945.03,201.02 -1270.02,526.01 -325,325 -526.02,774.03 -526.02,1270.03 0,496 201.03,945.04 526.02,1270.02 324.98,324.99 774.02,526.02 1270.02,526.02 496,0 945.03,-201.02 1270.03,-526.02 324.99,-324.99 526.01,-774.02 526.01,-1270.02 0,-496 -201.03,-945.04 -526.01,-1270.03zm-3856.68 1491.8c-6.19,-73.11 -9.39,-147.06 -9.39,-221.77 0,-110.97 6.99,-220.31 20.5,-327.62l-4934.14 0c-0.77,66.82 -1.31,151.49 -1.31,274.7 0,122.98 0.53,207.69 1.28,274.69l4923.06 0zm-5714.8 487.11c-6.24,-28.04 -9.54,-57.19 -9.54,-87.11 0,-28.75 3.05,-56.77 8.82,-83.8 -0.58,-68.34 -1.42,-115.69 -2.28,-163.79 -3.23,-179.76 -6.54,-364.14 -6.54,-427.1 0,-65 3.37,-249.23 6.6,-426.45 0.87,-47.91 1.73,-94.83 2.3,-164.1 -5.81,-27.13 -8.9,-55.28 -8.9,-84.15 0,-29.95 3.32,-59.11 9.56,-87.18l0 -21.74c0,-570.04 -66.12,-959.5 -641.43,-959.5 -496,0 -945.03,201.02 -1270.02,526.01 -325,325 -526.02,774.03 -526.02,1270.03 0,496 201.03,945.04 526.02,1270.02 324.98,324.99 774.02,526.02 1270.02,526.02 575.31,0 641.43,-445.18 641.43,-1051.14l-0.02 -36.02zm0.02 7291.67c0,-570.04 -66.12,-959.5 -641.43,-959.5 -496,0 -945.03,201.02 -1270.02,526.01 -325,325 -526.02,774.03 -526.02,1270.03 0,496 201.03,945.04 526.02,1270.02 324.98,324.99 774.02,526.02 1270.02,526.02 575.31,0 641.43,-445.18 641.43,-1051.14l-0.02 -36.02c-6.24,-28.04 -9.54,-57.19 -9.54,-87.11 0,-28.75 3.05,-56.77 8.82,-83.8 -0.58,-68.34 -1.42,-115.69 -2.28,-163.79 -3.23,-179.76 -6.54,-364.14 -6.54,-427.1 0,-65 3.37,-249.23 6.6,-426.45 0.87,-47.91 1.73,-94.83 2.3,-164.1 -5.81,-27.13 -8.9,-55.28 -8.9,-84.15 0,-29.95 3.32,-59.11 9.56,-87.18l0 -21.74zm791.75 508.92c-0.77,66.82 -1.31,151.49 -1.31,274.7 0,122.98 0.53,207.69 1.28,274.69l4920.93 0c-4.8,-64.48 -7.26,-129.61 -7.26,-195.31 0,-120.11 8.2,-238.31 23.99,-354.08l-4937.63 0zm8779.71 -915.95c-324.99,-324.98 -774.03,-526.01 -1270.03,-526.01 -496,0 -945.03,201.02 -1270.02,526.01 -325,325 -526.02,774.03 -526.02,1270.03 0,496 201.03,945.04 526.02,1270.02 324.98,324.99 774.02,526.02 1270.02,526.02 496,0 945.03,-201.02 1270.03,-526.02 324.99,-324.99 526.01,-774.02 526.01,-1270.02 0,-496 -201.03,-945.04 -526.01,-1270.03zm0 8863.54c-324.99,-324.98 -774.03,-526.01 -1270.03,-526.01 -496,0 -945.03,201.02 -1270.02,526.01 -325,325 -526.02,774.03 -526.02,1270.03 0,496 201.03,945.04 526.02,1270.02 324.98,324.99 774.02,526.02 1270.02,526.02 496,0 945.03,-201.02 1270.03,-526.02 324.99,-324.99 526.01,-774.02 526.01,-1270.02 0,-496 -201.03,-945.04 -526.01,-1270.03zm-3845.57 1597.63c-13.52,-107.3 -20.5,-216.63 -20.5,-327.6 0,-74.71 3.2,-148.68 9.39,-221.79l-4923.03 0c-0.77,66.82 -1.31,151.49 -1.31,274.7 0,122.98 0.53,207.69 1.28,274.69l4934.17 0zm-5725.89 -1058.31c0,-570.04 -66.12,-959.5 -641.43,-959.5 -496,0 -945.03,201.02 -1270.02,526.01 -325,325 -526.02,774.03 -526.02,1270.03 0,496 201.03,945.04 526.02,1270.02 324.98,324.99 774.02,526.02 1270.02,526.02 575.31,0 641.43,-445.18 641.43,-1051.14l-0.02 -36.02c-6.24,-28.04 -9.54,-57.19 -9.54,-87.11 0,-28.75 3.05,-56.77 8.82,-83.8 -0.58,-68.34 -1.42,-115.69 -2.28,-163.79 -3.23,-179.76 -6.54,-364.14 -6.54,-427.1 0,-65 3.37,-249.23 6.6,-426.45 0.87,-47.91 1.73,-94.83 2.3,-164.1 -5.81,-27.13 -8.9,-55.28 -8.9,-84.15 0,-29.95 3.32,-59.11 9.56,-87.18l0 -21.74zm20135.54 -18792.42c-496,0 -945.03,201.02 -1270.02,526.01 -325,325 -526.02,774.03 -526.02,1270.03 0,496 201.03,945.04 526.02,1270.02 324.98,324.99 774.02,526.02 1270.02,526.02 496,0 945.03,-201.02 1270.03,-526.02 324.99,-324.99 526.01,-774.02 526.01,-1270.02 0,-496 -201.03,-945.04 -526.01,-1270.03 -324.99,-324.98 -774.03,-526.01 -1270.03,-526.01zm2596.04 1796.04c0,74.71 -3.21,148.67 -9.39,221.77l4923.06 0c0.75,-67 1.28,-151.71 1.28,-274.69 0,-123.21 -0.54,-207.88 -1.31,-274.7l-4934.14 0c13.52,107.31 20.5,216.65 20.5,327.62zm5706.13 537.97c5.77,27.03 8.82,55.05 8.82,83.8 0,29.92 -3.31,59.07 -9.54,87.11l-0.02 36.02c0,605.96 66.12,1051.14 641.43,1051.14 496,0 945.03,-201.02 1270.03,-526.02 324.99,-324.99 526.01,-774.02 526.01,-1270.02 0,-496 -201.03,-945.04 -526.01,-1270.03 -324.99,-324.98 -774.03,-526.01 -1270.03,-526.01 -575.31,0 -641.43,389.46 -641.43,959.5l0 21.74c6.24,28.07 9.56,57.23 9.56,87.18 0,28.87 -3.09,57.02 -8.9,84.15 0.57,69.27 1.43,116.19 2.3,164.1 3.23,177.22 6.6,361.45 6.6,426.45 0,62.96 -3.31,247.34 -6.54,427.1 -0.86,48.1 -1.7,95.45 -2.28,163.79zm640.69 6503.08c-575.31,0 -641.43,389.46 -641.43,959.5l0 21.74c6.24,28.07 9.56,57.23 9.56,87.18 0,28.87 -3.09,57.02 -8.9,84.15 0.57,69.27 1.43,116.19 2.3,164.1 3.23,177.22 6.6,361.45 6.6,426.45 0,62.96 -3.31,247.34 -6.54,427.1 -0.86,48.1 -1.7,95.45 -2.28,163.79 5.77,27.03 8.82,55.05 8.82,83.8 0,29.92 -3.31,59.07 -9.54,87.11l-0.02 36.02c0,605.96 66.12,1051.14 641.43,1051.14 496,0 945.03,-201.02 1270.03,-526.02 324.99,-324.99 526.01,-774.02 526.01,-1270.02 0,-496 -201.03,-945.04 -526.01,-1270.03 -324.99,-324.98 -774.03,-526.01 -1270.03,-526.01zm-1431.87 1743.12c0,-123.21 -0.54,-207.88 -1.31,-274.7l-4937.63 0c15.79,115.77 23.99,233.97 23.99,354.08 0,65.7 -2.46,130.83 -7.26,195.31l4920.93 0c0.75,-67 1.28,-151.71 1.28,-274.69zm-7510.99 -1716.66c-496,0 -945.03,201.02 -1270.02,526.01 -325,325 -526.02,774.03 -526.02,1270.03 0,496 201.03,945.04 526.02,1270.02 324.98,324.99 774.02,526.02 1270.02,526.02 496,0 945.03,-201.02 1270.03,-526.02 324.99,-324.99 526.01,-774.02 526.01,-1270.02 0,-496 -201.03,-945.04 -526.01,-1270.03 -324.99,-324.98 -774.03,-526.01 -1270.03,-526.01zm0 8863.54c-496,0 -945.03,201.02 -1270.02,526.01 -325,325 -526.02,774.03 -526.02,1270.03 0,496 201.03,945.04 526.02,1270.02 324.98,324.99 774.02,526.02 1270.02,526.02 496,0 945.03,-201.02 1270.03,-526.02 324.99,-324.99 526.01,-774.02 526.01,-1270.02 0,-496 -201.03,-945.04 -526.01,-1270.03 -324.99,-324.98 -774.03,-526.01 -1270.03,-526.01zm2596.04 1796.04c0,110.97 -6.98,220.3 -20.5,327.6l4934.17 0c0.75,-67 1.28,-151.71 1.28,-274.69 0,-123.21 -0.54,-207.88 -1.31,-274.7l-4923.03 0c6.18,73.11 9.39,147.08 9.39,221.79zm6346.82 -1690.21c-575.31,0 -641.43,389.46 -641.43,959.5l0 21.74c6.24,28.07 9.56,57.23 9.56,87.18 0,28.87 -3.09,57.02 -8.9,84.15 0.57,69.27 1.43,116.19 2.3,164.1 3.23,177.22 6.6,361.45 6.6,426.45 0,62.96 -3.31,247.34 -6.54,427.1 -0.86,48.1 -1.7,95.45 -2.28,163.79 5.77,27.03 8.82,55.05 8.82,83.8 0,29.92 -3.31,59.07 -9.54,87.11l-0.02 36.02c0,605.96 66.12,1051.14 641.43,1051.14 496,0 945.03,-201.02 1270.03,-526.02 324.99,-324.99 526.01,-774.02 526.01,-1270.02 0,-496 -201.03,-945.04 -526.01,-1270.03 -324.99,-324.98 -774.03,-526.01 -1270.03,-526.01z"/></g><text x="0" y="60015" fill="#000000" font-size="5px" font-weight="bold" font-family="'Helvetica Neue', Helvetica, Arial-Unicode, Arial, Sans-serif">Created by Olena Panasovska</text><text x="0" y="60020" fill="#000000" font-size="5px" font-weight="bold" font-family="'Helvetica Neue', Helvetica, Arial-Unicode, Arial, Sans-serif">from the Noun Project</text></svg>